<?xml version="1.0" encoding="utf-8"?>
<!-- Generator: Adobe Illustrator 23.0.1, SVG Export Plug-In . SVG Version: 6.00 Build 0)  -->
<svg version="1.1" id="Layer_1" xmlns="http://www.w3.org/2000/svg" xmlns:xlink="http://www.w3.org/1999/xlink" x="0px" y="0px"
	 viewBox="0 0 15.5 16.5" style="enable-background:new 0 0 15.5 16.5;" xml:space="preserve">
<path d="M9.3,16.5H6.1c-0.4,0-0.8-0.3-0.8-0.8S5.7,15,6.1,15h3.2c0.4,0,0.8,0.3,0.8,0.8S9.8,16.5,9.3,16.5z"/>
<path d="M12.9,13.5H2.6c-1.4,0-2.6-1.2-2.6-2.6c0-1,0.6-1.9,1.4-2.3l0.5-0.3C2,8.3,2,8.3,2,8.3V5.8C2,2.6,4.6,0,7.8,0
	c3.2,0,5.8,2.6,5.8,5.8v2.5c0,0,0,0.1,0.1,0.1l0.5,0.2c0.9,0.4,1.4,1.3,1.4,2.3C15.5,12.4,14.3,13.5,12.9,13.5z M7.8,1.5
	c-2.3,0-4.2,1.9-4.2,4.2v2.5c0,0.6-0.3,1.2-0.9,1.4L2.1,9.9c-0.4,0.2-0.6,0.6-0.6,1C1.5,11.5,2,12,2.6,12h10.3
	c0.6,0,1.1-0.5,1.1-1.1c0-0.4-0.2-0.8-0.6-1l-0.5-0.3C12.3,9.4,12,8.9,12,8.3V5.8C12,3.4,10.1,1.5,7.8,1.5z"/>
</svg>
