<?xml version="1.0" encoding="utf-8"?>
<!-- Generator: Adobe Illustrator 23.0.1, SVG Export Plug-In . SVG Version: 6.00 Build 0)  -->
<svg version="1.1" id="Layer_1" xmlns="http://www.w3.org/2000/svg" xmlns:xlink="http://www.w3.org/1999/xlink" x="0px" y="0px"
	 viewBox="0 0 19.5 19.5" style="enable-background:new 0 0 19.5 19.5;" xml:space="preserve">
<path d="M5.5,8.2H2.8C1.2,8.2,0,7,0,5.5V2.8C0,1.2,1.2,0,2.8,0h2.8C7,0,8.2,1.2,8.2,2.8v2.8C8.2,7,7,8.2,5.5,8.2z M2.8,1.5
	c-0.7,0-1.2,0.6-1.2,1.2v2.8c0,0.7,0.6,1.2,1.2,1.2h2.8c0.7,0,1.2-0.6,1.2-1.2V2.8c0-0.7-0.6-1.2-1.2-1.2H2.8z"/>
<path d="M16.8,8.2H14c-1.5,0-2.8-1.2-2.8-2.8V2.8C11.2,1.2,12.5,0,14,0h2.8c1.5,0,2.8,1.2,2.8,2.8v2.8C19.5,7,18.3,8.2,16.8,8.2z
	 M14,1.5c-0.7,0-1.2,0.6-1.2,1.2v2.8c0,0.7,0.6,1.2,1.2,1.2h2.8c0.7,0,1.2-0.6,1.2-1.2V2.8c0-0.7-0.6-1.2-1.2-1.2H14z"/>
<path d="M5.5,19.5H2.8c-1.5,0-2.8-1.2-2.8-2.8V14c0-1.5,1.2-2.8,2.8-2.8h2.8c1.5,0,2.8,1.2,2.8,2.8v2.8C8.2,18.3,7,19.5,5.5,19.5z
	 M2.8,12.8c-0.7,0-1.2,0.6-1.2,1.2v2.8c0,0.7,0.6,1.2,1.2,1.2h2.8c0.7,0,1.2-0.6,1.2-1.2V14c0-0.7-0.6-1.2-1.2-1.2H2.8z"/>
<path d="M16.8,19.5H14c-1.5,0-2.8-1.2-2.8-2.8V14c0-1.5,1.2-2.8,2.8-2.8h2.8c1.5,0,2.8,1.2,2.8,2.8v2.8
	C19.5,18.3,18.3,19.5,16.8,19.5z M14,12.8c-0.7,0-1.2,0.6-1.2,1.2v2.8c0,0.7,0.6,1.2,1.2,1.2h2.8c0.7,0,1.2-0.6,1.2-1.2V14
	c0-0.7-0.6-1.2-1.2-1.2H14z"/>
</svg>
