<?xml version="1.0" encoding="utf-8"?>
<!-- Generator: Adobe Illustrator 23.0.1, SVG Export Plug-In . SVG Version: 6.00 Build 0)  -->
<svg version="1.1" id="Layer_1" xmlns="http://www.w3.org/2000/svg" xmlns:xlink="http://www.w3.org/1999/xlink" x="0px" y="0px"
	 viewBox="0 0 19.9 18.9" style="enable-background:new 0 0 19.9 18.9;" xml:space="preserve">
<g>
	<path d="M16.8,3.9c0.2,0,0.4-0.1,0.5-0.2l1-1c0.3-0.3,0.3-0.8,0-1.1s-0.8-0.3-1.1,0l-1,1c-0.3,0.3-0.3,0.8,0,1.1
		C16.4,3.8,16.6,3.9,16.8,3.9z"/>
	<path d="M17.8,10.4c-0.4,0-0.8,0.3-0.8,0.8v5c0,0.7-0.6,1.2-1.2,1.2h-13c-0.7,0-1.2-0.6-1.2-1.2v-4.5c0.9,0.2,1.8,0.2,2.6,0.2
		c5.5,0,8.4-3.2,8.9-3.9v1.3c0,0.4,0.3,0.8,0.8,0.8s0.8-0.3,0.8-0.8V6.2c0-0.4-0.3-0.8-0.8-0.8h-3.2c-0.4,0-0.8,0.3-0.8,0.8
		s0.3,0.8,0.8,0.8H12c0,0,0,0-0.1,0.1c0,0-3.4,4.5-10.4,3.2v-6c0-0.7,0.6-1.2,1.2-1.2h7c0.4,0,0.8-0.3,0.8-0.8s-0.3-0.8-0.8-0.8h-7
		C1.2,1.4,0,2.6,0,4.2v12c0,1.5,1.2,2.8,2.8,2.8h13c1.5,0,2.8-1.2,2.8-2.8v-5C18.5,10.7,18.2,10.4,17.8,10.4z"/>
	<path d="M19.2,5.4h-1.4c-0.4,0-0.8,0.3-0.8,0.8s0.3,0.8,0.8,0.8h1.4c0.4,0,0.8-0.3,0.8-0.8S19.6,5.4,19.2,5.4z"/>
	<path d="M13.8,2.9c0.4,0,0.8-0.3,0.8-0.8V0.8c0-0.4-0.3-0.8-0.8-0.8S13,0.3,13,0.8v1.4C13,2.6,13.3,2.9,13.8,2.9z"/>
</g>
</svg>
