<?xml version="1.0" encoding="utf-8"?>
<!-- Generator: Adobe Illustrator 23.0.1, SVG Export Plug-In . SVG Version: 6.00 Build 0)  -->
<svg version="1.1" id="Layer_1" xmlns="http://www.w3.org/2000/svg" xmlns:xlink="http://www.w3.org/1999/xlink" x="0px" y="0px"
	 viewBox="0 0 19.5 19.5" style="enable-background:new 0 0 19.5 19.5;" xml:space="preserve">
<g>
	<path d="M2.8,12.5C1.2,12.5,0,11.3,0,9.8S1.2,7,2.8,7s2.8,1.2,2.8,2.8S4.3,12.5,2.8,12.5z M2.8,8.5c-0.7,0-1.2,0.6-1.2,1.2
		S2.1,11,2.8,11S4,10.4,4,9.8S3.4,8.5,2.8,8.5z"/>
</g>
<g>
	<path d="M9.8,12.5C8.2,12.5,7,11.3,7,9.8S8.2,7,9.8,7s2.8,1.2,2.8,2.8S11.3,12.5,9.8,12.5z M9.8,8.5c-0.7,0-1.2,0.6-1.2,1.2
		S9.1,11,9.8,11S11,10.4,11,9.8S10.4,8.5,9.8,8.5z"/>
</g>
<g>
	<path d="M16.8,12.5c-1.5,0-2.8-1.2-2.8-2.8S15.2,7,16.8,7s2.8,1.2,2.8,2.8S18.3,12.5,16.8,12.5z M16.8,8.5c-0.7,0-1.2,0.6-1.2,1.2
		s0.6,1.2,1.2,1.2S18,10.4,18,9.8S17.4,8.5,16.8,8.5z"/>
</g>
<g>
	<path d="M2.8,19.5c-1.5,0-2.8-1.2-2.8-2.8S1.2,14,2.8,14s2.8,1.2,2.8,2.8S4.3,19.5,2.8,19.5z M2.8,15.5c-0.7,0-1.2,0.6-1.2,1.2
		S2.1,18,2.8,18S4,17.4,4,16.8S3.4,15.5,2.8,15.5z"/>
</g>
<g>
	<path d="M9.8,19.5c-1.5,0-2.8-1.2-2.8-2.8S8.2,14,9.8,14s2.8,1.2,2.8,2.8S11.3,19.5,9.8,19.5z M9.8,15.5c-0.7,0-1.2,0.6-1.2,1.2
		S9.1,18,9.8,18s1.2-0.6,1.2-1.2S10.4,15.5,9.8,15.5z"/>
</g>
<g>
	<path d="M16.8,19.5c-1.5,0-2.8-1.2-2.8-2.8s1.2-2.8,2.8-2.8s2.8,1.2,2.8,2.8S18.3,19.5,16.8,19.5z M16.8,15.5
		c-0.7,0-1.2,0.6-1.2,1.2s0.6,1.2,1.2,1.2s1.2-0.6,1.2-1.2S17.4,15.5,16.8,15.5z"/>
</g>
<g>
	<path d="M2.8,5.5C1.2,5.5,0,4.3,0,2.8S1.2,0,2.8,0s2.8,1.2,2.8,2.8S4.3,5.5,2.8,5.5z M2.8,1.5c-0.7,0-1.2,0.6-1.2,1.2S2.1,4,2.8,4
		S4,3.4,4,2.8S3.4,1.5,2.8,1.5z"/>
</g>
<g>
	<path d="M9.8,5.5C8.2,5.5,7,4.3,7,2.8S8.2,0,9.8,0s2.8,1.2,2.8,2.8S11.3,5.5,9.8,5.5z M9.8,1.5c-0.7,0-1.2,0.6-1.2,1.2S9.1,4,9.8,4
		S11,3.4,11,2.8S10.4,1.5,9.8,1.5z"/>
</g>
<g>
	<path d="M16.8,5.5c-1.5,0-2.8-1.2-2.8-2.8S15.2,0,16.8,0s2.8,1.2,2.8,2.8S18.3,5.5,16.8,5.5z M16.8,1.5c-0.7,0-1.2,0.6-1.2,1.2
		S16.1,4,16.8,4S18,3.4,18,2.8S17.4,1.5,16.8,1.5z"/>
</g>
</svg>
