<?xml version="1.0" encoding="utf-8"?>
<!-- Generator: Adobe Illustrator 23.0.1, SVG Export Plug-In . SVG Version: 6.00 Build 0)  -->
<svg version="1.1" id="Layer_1" xmlns="http://www.w3.org/2000/svg" xmlns:xlink="http://www.w3.org/1999/xlink" x="0px" y="0px"
	 viewBox="0 0 19.5 19.5" style="enable-background:new 0 0 19.5 19.5;" xml:space="preserve">
<style type="text/css">
	.st0{fill:none;}
</style>
<g>
	<path class="st0" d="M17.8,15.5h-9c-0.1,0-0.2,0.1-0.2,0.2v2c0,0.1,0.1,0.2,0.2,0.2h9c0.1,0,0.2-0.1,0.2-0.2v-2
		C18,15.6,17.9,15.5,17.8,15.5z"/>
	<path class="st0" d="M3.8,15.5h-2c-0.1,0-0.2,0.1-0.2,0.2v2c0,0.1,0.1,0.2,0.2,0.2h2C3.9,18,4,17.9,4,17.8v-2
		C4,15.6,3.9,15.5,3.8,15.5z"/>
	<path class="st0" d="M3.8,1.5h-2c-0.1,0-0.2,0.1-0.2,0.2v2C1.5,3.9,1.6,4,1.8,4h2C3.9,4,4,3.9,4,3.8v-2C4,1.6,3.9,1.5,3.8,1.5z"/>
	<path class="st0" d="M3.8,8.5h-2c-0.1,0-0.2,0.1-0.2,0.2v2c0,0.1,0.1,0.2,0.2,0.2h2C3.9,11,4,10.9,4,10.8v-2C4,8.6,3.9,8.5,3.8,8.5
		z"/>
	<path class="st0" d="M17.8,8.5h-9c-0.1,0-0.2,0.1-0.2,0.2v2c0,0.1,0.1,0.2,0.2,0.2h9c0.1,0,0.2-0.1,0.2-0.2v-2
		C18,8.6,17.9,8.5,17.8,8.5z"/>
	<path class="st0" d="M17.8,1.5h-9c-0.1,0-0.2,0.1-0.2,0.2v2C8.5,3.9,8.6,4,8.8,4h9C17.9,4,18,3.9,18,3.8v-2
		C18,1.6,17.9,1.5,17.8,1.5z"/>
	<path d="M17.8,0h-9C7.8,0,7,0.8,7,1.8v2c0,1,0.8,1.8,1.8,1.8h9c1,0,1.8-0.8,1.8-1.8v-2C19.5,0.8,18.7,0,17.8,0z M18,3.8
		C18,3.9,17.9,4,17.8,4h-9C8.6,4,8.5,3.9,8.5,3.8v-2c0-0.1,0.1-0.2,0.2-0.2h9c0.1,0,0.2,0.1,0.2,0.2V3.8z"/>
	<path d="M17.8,7h-9C7.8,7,7,7.8,7,8.8v2c0,1,0.8,1.8,1.8,1.8h9c1,0,1.8-0.8,1.8-1.8v-2C19.5,7.8,18.7,7,17.8,7z M18,10.8
		c0,0.1-0.1,0.2-0.2,0.2h-9c-0.1,0-0.2-0.1-0.2-0.2v-2c0-0.1,0.1-0.2,0.2-0.2h9c0.1,0,0.2,0.1,0.2,0.2V10.8z"/>
	<path d="M17.8,14h-9c-1,0-1.8,0.8-1.8,1.8v2c0,1,0.8,1.8,1.8,1.8h9c1,0,1.8-0.8,1.8-1.8v-2C19.5,14.8,18.7,14,17.8,14z M18,17.8
		c0,0.1-0.1,0.2-0.2,0.2h-9c-0.1,0-0.2-0.1-0.2-0.2v-2c0-0.1,0.1-0.2,0.2-0.2h9c0.1,0,0.2,0.1,0.2,0.2V17.8z"/>
	<path d="M3.8,0h-2C0.8,0,0,0.8,0,1.8v2c0,1,0.8,1.8,1.8,1.8h2c1,0,1.8-0.8,1.8-1.8v-2C5.5,0.8,4.7,0,3.8,0z M4,3.8
		C4,3.9,3.9,4,3.8,4h-2C1.6,4,1.5,3.9,1.5,3.8v-2c0-0.1,0.1-0.2,0.2-0.2h2C3.9,1.5,4,1.6,4,1.8V3.8z"/>
	<path d="M3.8,7h-2C0.8,7,0,7.8,0,8.8v2c0,1,0.8,1.8,1.8,1.8h2c1,0,1.8-0.8,1.8-1.8v-2C5.5,7.8,4.7,7,3.8,7z M4,10.8
		C4,10.9,3.9,11,3.8,11h-2c-0.1,0-0.2-0.1-0.2-0.2v-2c0-0.1,0.1-0.2,0.2-0.2h2C3.9,8.5,4,8.6,4,8.8V10.8z"/>
	<path d="M3.8,14h-2c-1,0-1.8,0.8-1.8,1.8v2c0,1,0.8,1.8,1.8,1.8h2c1,0,1.8-0.8,1.8-1.8v-2C5.5,14.8,4.7,14,3.8,14z M4,17.8
		C4,17.9,3.9,18,3.8,18h-2c-0.1,0-0.2-0.1-0.2-0.2v-2c0-0.1,0.1-0.2,0.2-0.2h2c0.1,0,0.2,0.1,0.2,0.2V17.8z"/>
</g>
</svg>
