<?xml version="1.0" encoding="utf-8"?>
<!-- Generator: Adobe Illustrator 23.0.1, SVG Export Plug-In . SVG Version: 6.00 Build 0)  -->
<svg version="1.1" id="Layer_1" xmlns="http://www.w3.org/2000/svg" xmlns:xlink="http://www.w3.org/1999/xlink" x="0px" y="0px"
	 viewBox="0 0 19.5 19.5" style="enable-background:new 0 0 19.5 19.5;" xml:space="preserve">
<style type="text/css">
	.st0{fill:none;}
</style>
<g>
	<path class="st0" d="M10.9,1.8c-0.4,0.4-0.5,1.4-0.4,2.2c0.6-0.1,1.2-0.3,1.7-0.8c0,0,0,0,0,0c0.4-0.4,0.4-1,0-1.4
		C11.8,1.4,11.3,1.4,10.9,1.8C10.9,1.8,10.9,1.8,10.9,1.8z"/>
	<path class="st0" d="M9,3.9c0-0.8,0-1.7-0.4-2.2c0,0,0,0,0,0C8.4,1.6,8.2,1.5,7.9,1.5h0c-0.2,0-0.4,0.1-0.6,0.3
		C7,2.1,7,2.7,7.3,3.1C7.8,3.6,8.4,3.8,9,3.9z"/>
	<path class="st0" d="M4,6.9C4.1,6.9,4.2,7,4.3,7h11c0.1,0,0.2-0.1,0.2-0.1l0.5-1c0.1-0.1,0-0.2,0-0.2s-0.1-0.1-0.2-0.1h-12
		c-0.1,0-0.2,0.1-0.2,0.1c0,0-0.1,0.1,0,0.2L4,6.9z"/>
	<path class="st0" d="M15.3,8.5C15.3,8.5,15.3,8.5,15.3,8.5l-11,0c0,0,0,0-0.1,0l-2.3,3.7c-0.3,0.5-0.4,1-0.4,1.6
		c0,0.7,0.3,1.5,0.8,2l0.9,1.1C3.8,17.6,4.6,18,5.5,18H14c0.9,0,1.8-0.4,2.3-1.1l0.9-1.1c0.5-0.6,0.8-1.3,0.8-2
		c0-0.6-0.2-1.1-0.4-1.6L15.3,8.5z"/>
	<path d="M18.8,11.4l-2.2-3.7c0.1-0.1,0.1-0.2,0.2-0.3l0.5-1c0.3-0.5,0.2-1.2-0.1-1.7C16.9,4.3,16.4,4,15.7,4h-2.4
		c0.8-1,0.7-2.4-0.1-3.3c-0.9-0.9-2.5-0.9-3.4,0c0,0,0,0,0,0c0,0-0.1,0.1-0.1,0.2c0,0-0.1-0.1-0.1-0.2c0,0,0,0,0,0
		C9.2,0.3,8.6,0,7.9,0c0,0,0,0,0,0C7.3,0,6.7,0.3,6.3,0.7C5.4,1.6,5.4,3,6.1,4H3.8C3.1,4,2.6,4.3,2.3,4.8C1.9,5.4,1.9,6,2.2,6.5
		l0.5,1c0,0.1,0.1,0.2,0.2,0.3l-2.2,3.7C0.2,12.2,0,13,0,13.8c0,1.1,0.4,2.2,1.1,3L2,17.9c0.9,1,2.1,1.6,3.5,1.6H14
		c1.3,0,2.6-0.6,3.5-1.6l0.9-1.1c0.7-0.8,1.1-1.9,1.1-3C19.5,13,19.3,12.2,18.8,11.4z M10.9,1.8C10.9,1.8,10.9,1.8,10.9,1.8
		c0.3-0.3,0.9-0.3,1.2,0c0.4,0.4,0.4,1,0,1.4c0,0,0,0,0,0c-0.5,0.5-1.1,0.7-1.7,0.8C10.5,3.2,10.6,2.2,10.9,1.8z M7.3,1.8
		c0.2-0.2,0.4-0.3,0.6-0.3h0c0.2,0,0.4,0.1,0.6,0.3c0,0,0,0,0,0C8.9,2.2,9,3.2,9,3.9C8.4,3.8,7.8,3.6,7.3,3.1C7,2.7,7,2.1,7.3,1.8z
		 M3.5,5.6c0,0,0.1-0.1,0.2-0.1h12c0.1,0,0.2,0.1,0.2,0.1s0.1,0.1,0,0.2l-0.5,1c0,0.1-0.1,0.1-0.2,0.1h-11C4.2,7,4.1,6.9,4,6.9
		l-0.5-1C3.5,5.8,3.5,5.7,3.5,5.6z M17.2,15.8l-0.9,1.1C15.7,17.6,14.9,18,14,18H5.5c-0.9,0-1.8-0.4-2.3-1.1l-0.9-1.1
		c-0.5-0.6-0.8-1.3-0.8-2c0-0.6,0.2-1.1,0.4-1.6l2.3-3.7c0,0,0,0,0.1,0h11c0,0,0,0,0.1,0l2.3,3.7c0.3,0.5,0.4,1,0.4,1.6
		C18,14.6,17.7,15.3,17.2,15.8z"/>
</g>
</svg>
