<?xml version="1.0" encoding="utf-8"?>
<!-- Generator: Adobe Illustrator 23.0.1, SVG Export Plug-In . SVG Version: 6.00 Build 0)  -->
<svg version="1.1" id="Layer_1" xmlns="http://www.w3.org/2000/svg" xmlns:xlink="http://www.w3.org/1999/xlink" x="0px" y="0px"
	 viewBox="0 0 19.1 21.5" style="enable-background:new 0 0 19.1 21.5;" xml:space="preserve">
<style type="text/css">
	.st0{fill:none;}
</style>
<g>
	<path class="st0" d="M9.5,15.3c-0.6,0-1,0.4-1,1V19c0,0.6,0.4,1,1,1c0.6,0,1-0.4,1-1v-2.7C10.5,15.8,10.1,15.3,9.5,15.3z"/>
	<circle class="st0" cx="9.5" cy="9.5" r="1.4"/>
	<path d="M9.5,13.8c-1.4,0-2.5,1.1-2.5,2.5V19c0,1.4,1.1,2.5,2.5,2.5c1.4,0,2.5-1.1,2.5-2.5v-2.7C12,14.9,10.9,13.8,9.5,13.8z
		 M10.5,19c0,0.6-0.4,1-1,1c-0.6,0-1-0.4-1-1v-2.7c0-0.6,0.4-1,1-1c0.6,0,1,0.4,1,1V19z"/>
	<path d="M9.5,0C4.3,0,0,4.3,0,9.5c0,3.1,1.5,6.1,4.1,7.8c0.3,0.2,0.8,0.2,1-0.2c0.2-0.3,0.2-0.8-0.2-1c-2.2-1.5-3.5-4-3.5-6.6
		c0-4.4,3.6-8,8-8s8,3.6,8,8c0,2.6-1.3,5.1-3.5,6.6c-0.3,0.2-0.4,0.7-0.2,1c0.1,0.2,0.4,0.3,0.6,0.3c0.1,0,0.3,0,0.4-0.1
		c2.6-1.8,4.1-4.7,4.1-7.8C19.1,4.3,14.8,0,9.5,0z"/>
	<path d="M15.8,9.5c0-3.4-2.8-6.2-6.2-6.2c-3.4,0-6.2,2.8-6.2,6.2c0,1.6,0.6,3.1,1.7,4.3c0.3,0.3,0.8,0.3,1.1,0
		c0.3-0.3,0.3-0.8,0-1.1c-0.8-0.9-1.3-2-1.3-3.2c0-2.6,2.1-4.7,4.7-4.7c2.6,0,4.7,2.1,4.7,4.7c0,1.2-0.5,2.4-1.3,3.2
		c-0.3,0.3-0.3,0.8,0,1.1c0.1,0.1,0.3,0.2,0.5,0.2c0.2,0,0.4-0.1,0.5-0.2C15.2,12.6,15.8,11.1,15.8,9.5z"/>
	<path d="M9.5,6.6c-1.6,0-2.9,1.3-2.9,2.9c0,1.6,1.3,2.9,2.9,2.9c1.6,0,2.9-1.3,2.9-2.9C12.5,7.9,11.2,6.6,9.5,6.6z M9.5,11
		c-0.8,0-1.4-0.6-1.4-1.4s0.6-1.4,1.4-1.4c0.8,0,1.4,0.6,1.4,1.4S10.3,11,9.5,11z"/>
</g>
</svg>
