<?xml version="1.0" encoding="utf-8"?>
<!-- Generator: Adobe Illustrator 23.0.1, SVG Export Plug-In . SVG Version: 6.00 Build 0)  -->
<svg version="1.1" id="Layer_1" xmlns="http://www.w3.org/2000/svg" xmlns:xlink="http://www.w3.org/1999/xlink" x="0px" y="0px"
	 viewBox="0 0 17.5 17.5" style="enable-background:new 0 0 17.5 17.5;" xml:space="preserve">
<style type="text/css">
	.st0{fill:#262843;}
</style>
<path class="st0" d="M17.3,16.2l-3.4-3.4c1.1-1.4,1.8-3.1,1.8-5c0-4.3-3.5-7.8-7.8-7.8S0,3.5,0,7.8s3.5,7.8,7.8,7.8
	c1.9,0,3.6-0.7,5-1.8l3.4,3.4c0.1,0.1,0.3,0.2,0.5,0.2s0.4-0.1,0.5-0.2C17.6,17,17.6,16.5,17.3,16.2z M1.5,7.8
	c0-3.5,2.8-6.3,6.3-6.3s6.3,2.8,6.3,6.3s-2.8,6.3-6.3,6.3S1.5,11.3,1.5,7.8z"/>
</svg>
