<?xml version="1.0" encoding="utf-8"?>
<!-- Generator: Adobe Illustrator 23.0.1, SVG Export Plug-In . SVG Version: 6.00 Build 0)  -->
<svg version="1.1" id="Layer_1" xmlns="http://www.w3.org/2000/svg" xmlns:xlink="http://www.w3.org/1999/xlink" x="0px" y="0px"
	 viewBox="0 0 17.5 17.5" style="enable-background:new 0 0 17.5 17.5;" xml:space="preserve">
<style type="text/css">
	.st0{fill:none;}
</style>
<g>
	<path class="st0" d="M15,1.5H2.5c-0.6,0-1,0.5-1,1v10.7c0,0.6,0.5,1,1,1h10.9c0.1,0,0.2,0,0.4,0.1l2.2,1.2v-13
		C16,2,15.5,1.5,15,1.5z M10,4.8C10,4.3,10.3,4,10.8,4s0.8,0.3,0.8,0.8v1c0,0.4-0.3,0.8-0.8,0.8S10,6.2,10,5.8V4.8z M6,4.8
		C6,4.3,6.3,4,6.8,4s0.8,0.3,0.8,0.8v1c0,0.4-0.3,0.8-0.8,0.8S6,6.2,6,5.8V4.8z M13.2,10.3c-1.2,1.2-2.9,1.8-4.5,1.8
		s-3.2-0.6-4.5-1.8c-0.3-0.3-0.3-0.8,0-1.1s0.8-0.3,1.1,0c1.9,1.9,4.9,1.9,6.8,0c0.3-0.3,0.8-0.3,1.1,0S13.5,10,13.2,10.3z"/>
	<path d="M15,0H2.5C1.1,0,0,1.1,0,2.5v10.7c0,1.4,1.1,2.5,2.5,2.5h10.7l3.2,1.7c0.1,0.1,0.2,0.1,0.4,0.1c0.1,0,0.3,0,0.4-0.1
		c0.2-0.1,0.4-0.4,0.4-0.6V2.5C17.5,1.1,16.4,0,15,0z M16,15.5l-2.2-1.2c-0.1-0.1-0.2-0.1-0.4-0.1H2.5c-0.6,0-1-0.5-1-1V2.5
		c0-0.6,0.5-1,1-1H15c0.6,0,1,0.5,1,1V15.5z"/>
	<path d="M12.1,9.2c-1.9,1.9-4.9,1.9-6.8,0C5,8.9,4.5,8.9,4.2,9.2s-0.3,0.8,0,1.1c1.2,1.2,2.9,1.8,4.5,1.8s3.2-0.6,4.5-1.8
		c0.3-0.3,0.3-0.8,0-1.1S12.4,8.9,12.1,9.2z"/>
	<path d="M6.8,6.5c0.4,0,0.8-0.3,0.8-0.8v-1C7.5,4.3,7.2,4,6.8,4S6,4.3,6,4.8v1C6,6.2,6.3,6.5,6.8,6.5z"/>
	<path d="M10.8,6.5c0.4,0,0.8-0.3,0.8-0.8v-1c0-0.4-0.3-0.8-0.8-0.8S10,4.3,10,4.8v1C10,6.2,10.3,6.5,10.8,6.5z"/>
</g>
</svg>
